<svg xmlns="http://www.w3.org/2000/svg" width="23.689" height="15.467" viewBox="0 0 23.689 15.467">
  <g id="enable" transform="translate(0 -3)" opacity="0.8">
    <g id="Group_214" data-name="Group 214" transform="translate(0 3)">
      <path id="Path_375" data-name="Path 375" d="M11.845,18.467c-5.129,0-9.688-2.635-11.615-6.714a2.375,2.375,0,0,1,0-2.037C2.157,5.635,6.716,3,11.845,3S21.533,5.635,23.46,9.714a2.375,2.375,0,0,1,0,2.037C21.533,15.831,16.974,18.467,11.845,18.467Zm0-14.607c-4.727,0-8.928,2.427-10.7,6.182a1.618,1.618,0,0,0,0,1.384c1.774,3.756,5.975,6.182,10.7,6.182s8.928-2.427,10.7-6.182a1.618,1.618,0,0,0,0-1.384c-1.774-3.756-5.975-6.182-10.7-6.182Z" transform="translate(0 -3)" fill="#333"/>
    </g>
    <g id="Group_215" data-name="Group 215" transform="translate(7.897 6.785)">
      <path id="Path_376" data-name="Path 376" d="M11.948,15.9A3.948,3.948,0,1,1,15.9,11.948,3.952,3.952,0,0,1,11.948,15.9Zm0-6.91a2.961,2.961,0,1,0,2.961,2.961A2.965,2.965,0,0,0,11.948,8.987Z" transform="translate(-8 -8)" fill="#333"/>
    </g>
  </g>
</svg>
