<svg id="notification_1_" data-name="notification (1)" xmlns="http://www.w3.org/2000/svg" width="18.628" height="22.353" viewBox="0 0 18.628 22.353">
  <g id="Group_136" data-name="Group 136" transform="translate(0 3.26)">
    <g id="Group_135" data-name="Group 135">
      <path id="Path_120" data-name="Path 120" d="M61.219,90.261l-1.6-2.666a7.923,7.923,0,0,1-1.128-4.074V81.187a6.52,6.52,0,1,0-13.039,0v2.335A7.923,7.923,0,0,1,44.324,87.6l-1.6,2.666a.465.465,0,0,0,.4.705h17.7a.465.465,0,0,0,.4-.705Zm-17.273-.226,1.176-1.961a8.846,8.846,0,0,0,1.261-4.552V81.187a5.588,5.588,0,0,1,11.176,0v2.335a8.854,8.854,0,0,0,1.26,4.552L60,90.035Z" transform="translate(-42.657 -74.667)" fill="#333"/>
    </g>
  </g>
  <g id="Group_138" data-name="Group 138" transform="translate(7.451)">
    <g id="Group_137" data-name="Group 137">
      <path id="Path_121" data-name="Path 121" d="M215.2,0a1.865,1.865,0,0,0-1.863,1.863V3.725a.466.466,0,0,0,.931,0V1.863a.931.931,0,0,1,1.863,0V3.725a.466.466,0,0,0,.931,0V1.863A1.865,1.865,0,0,0,215.2,0Z" transform="translate(-213.333)" fill="#333"/>
    </g>
  </g>
  <g id="Group_140" data-name="Group 140" transform="translate(6.986 18.628)">
    <g id="Group_139" data-name="Group 139">
      <path id="Path_122" data-name="Path 122" d="M207.01,426.909a.466.466,0,0,0-.8.471,1.4,1.4,0,1,1-2.42,0,.466.466,0,0,0-.8-.471,2.329,2.329,0,1,0,4.029,0Z" transform="translate(-202.666 -426.68)" fill="#333"/>
    </g>
  </g>
</svg>
