<svg id="settings" xmlns="http://www.w3.org/2000/svg" width="22" height="22" viewBox="0 0 22 22">
  <g id="Group_506" data-name="Group 506">
    <g id="Group_505" data-name="Group 505">
      <path id="Path_796" data-name="Path 796" d="M20.565,8.609H18.775a8.094,8.094,0,0,0-.585-1.415l1.265-1.265a1.437,1.437,0,0,0,0-2.03L18.1,2.545a1.471,1.471,0,0,0-2.03,0L14.806,3.81a8.116,8.116,0,0,0-1.415-.585V1.435A1.437,1.437,0,0,0,11.957,0H10.043A1.437,1.437,0,0,0,8.609,1.435V3.225a8.131,8.131,0,0,0-1.415.585L5.929,2.546a1.437,1.437,0,0,0-2.03,0L2.545,3.9a1.438,1.438,0,0,0,0,2.03L3.81,7.194a8.116,8.116,0,0,0-.585,1.415H1.435A1.437,1.437,0,0,0,0,10.044v1.913a1.436,1.436,0,0,0,1.435,1.434H3.225a8.131,8.131,0,0,0,.585,1.415L2.546,16.071a1.437,1.437,0,0,0,0,2.03L3.9,19.455a1.438,1.438,0,0,0,2.03,0L7.194,18.19a8.116,8.116,0,0,0,1.415.585v1.79A1.437,1.437,0,0,0,10.044,22h1.913a1.437,1.437,0,0,0,1.435-1.435V18.775a8.116,8.116,0,0,0,1.415-.585l1.265,1.265a1.471,1.471,0,0,0,2.03,0L19.455,18.1a1.436,1.436,0,0,0,0-2.03L18.19,14.806a8.116,8.116,0,0,0,.585-1.415h1.79A1.437,1.437,0,0,0,22,11.957V10.043A1.437,1.437,0,0,0,20.565,8.609Zm.478,3.348a.479.479,0,0,1-.478.478H18.413a.478.478,0,0,0-.463.359,7.189,7.189,0,0,1-.767,1.852.479.479,0,0,0,.074.581l1.521,1.521a.48.48,0,0,1,0,.677l-1.353,1.353a.492.492,0,0,1-.677,0l-1.521-1.521a.479.479,0,0,0-.582-.074,7.164,7.164,0,0,1-1.851.767.478.478,0,0,0-.358.462v2.152a.479.479,0,0,1-.478.478H10.043a.479.479,0,0,1-.478-.478V18.413a.478.478,0,0,0-.359-.463,7.171,7.171,0,0,1-1.852-.767.473.473,0,0,0-.243-.066.478.478,0,0,0-.339.14L5.252,18.778a.48.48,0,0,1-.677,0L3.222,17.424a.479.479,0,0,1,0-.677l1.521-1.521a.478.478,0,0,0,.074-.581,7.181,7.181,0,0,1-.767-1.852.477.477,0,0,0-.462-.359H1.435a.479.479,0,0,1-.478-.478V10.043a.479.479,0,0,1,.478-.478H3.587a.478.478,0,0,0,.463-.359,7.171,7.171,0,0,1,.767-1.852.478.478,0,0,0-.074-.581L3.222,5.253a.48.48,0,0,1,0-.677L4.576,3.222a.479.479,0,0,1,.677,0L6.774,4.743a.477.477,0,0,0,.581.074A7.181,7.181,0,0,1,9.207,4.05a.478.478,0,0,0,.359-.463V1.435a.479.479,0,0,1,.478-.478h1.913a.479.479,0,0,1,.478.478V3.587a.478.478,0,0,0,.359.463,7.164,7.164,0,0,1,1.851.767.477.477,0,0,0,.582-.074l1.521-1.521a.491.491,0,0,1,.677,0l1.353,1.353a.48.48,0,0,1,0,.677L17.257,6.774a.478.478,0,0,0-.074.581,7.182,7.182,0,0,1,.767,1.852.477.477,0,0,0,.462.359h2.152a.479.479,0,0,1,.478.478Z" fill="#333"/>
    </g>
  </g>
  <g id="Group_508" data-name="Group 508" transform="translate(6.304 6.304)">
    <g id="Group_507" data-name="Group 507">
      <path id="Path_797" data-name="Path 797" d="M116.7,112a4.7,4.7,0,1,0,4.7,4.7A4.7,4.7,0,0,0,116.7,112Zm0,8.348a3.652,3.652,0,1,1,3.652-3.652A3.656,3.656,0,0,1,116.7,120.348Z" transform="translate(-112 -112)" fill="#333"/>
    </g>
  </g>
</svg>
